<svg xmlns="http://www.w3.org/2000/svg" version="1.1" xmlns:xlink="http://www.w3.org/1999/xlink" xmlns:svgjs="http://svgjs.dev/svgjs" width="2000" height="1255"><svg id="SvgjsSvg1018" xmlns="http://www.w3.org/2000/svg" viewBox="0 0 2000 1255">
    <path id="SvgjsPath1017" d="M1051.39,1126.61c-10.23-71.53-2.54-145.42,17.97-214.4,7.96-26.78,19.92-64.04,30.68-89.4,1.93-4.55,7.19-15.53,10.75-18.4,11.42-9.21,39.2-17.58,53.45-25.82,21.65-12.51,38.38-37.83,58.39-53.52,5.49-4.3,10.47-8.46,17.49-9.89l4.72,66.98c2.69,142.28-115.8,235.9-187.18,344.59l-6.27-.16Z" fill="#2f3293"></path>
    <path id="SvgjsPath1016" d="M1636.47,545.86c19.09-21.03,9.57-61.86-4.19-83.84-24.66-39.38-71.67-49.21-113.52-32.12-109.86,44.88-98.59,207.45,11.87,244.53,130.28,43.73,250.04-74.08,229.02-204.56-35.09-217.87-320.8-240.82-427.92-63.8-20.37,33.66-25.79,77.73-40.96,114.09-3.26,4.97-16.47,4.05-21.97,3.43-27.44-3.09-86.48-33.56-110.18-49.52-78.79-53.05-100-173.16-102.12-261.58l64.11-63.02C1266.27,17.55,1459.41-31.46,1650.94,20.18c153.62,41.41,285.59,148.91,332.04,304.45,94.29,315.74-219.48,679.17-540.37,493.79-57.12-33-116.3-84.08-137.17-148.54,10.75-110.42,12.26-254.15,118.5-318.48,145.48-88.08,347.86,11.46,296.75,194.19-14.51,51.89-46.2,97.7-101.71,109.29-74.34,15.51-160.52-31.76-153.86-115.41,9.23-115.91,198.26-127.48,171.35,6.39Z" fill="#2f3293"></path>
    <path id="SvgjsPath1015" d="M948.61,1126.61c10.23-71.53,2.54-145.42-17.97-214.4-7.96-26.78-19.92-64.04-30.68-89.4-1.93-4.55-7.19-15.53-10.75-18.4-11.42-9.21-39.2-17.58-53.45-25.82-21.65-12.51-38.38-37.83-58.39-53.52-5.49-4.3-10.47-8.46-17.49-9.89l-4.72,66.98c-2.69,142.28,115.8,235.9,187.18,344.59l6.27-.16Z" fill="#2f3293"></path>
    <path id="SvgjsPath1014" d="M363.53,545.86c-19.09-21.03-9.57-61.86,4.19-83.84,24.66-39.38,71.67-49.21,113.52-32.12,109.86,44.88,98.59,207.45-11.87,244.53-130.28,43.73-250.04-74.08-229.02-204.56,35.09-217.87,320.8-240.82,427.92-63.8,20.37,33.66,25.79,77.73,40.96,114.09,3.26,4.97,16.47,4.05,21.97,3.43,27.44-3.09,86.48-33.56,110.18-49.52,78.79-53.05,100-173.16,102.12-261.58l-64.11-63.02C733.73,17.55,540.59-31.46,349.06,20.18,195.44,61.59,63.47,169.09,17.02,324.63c-94.29,315.74,219.48,679.17,540.37,493.79,57.12-33,116.3-84.08,137.17-148.54-10.75-110.42-12.26-254.15-118.5-318.48-145.48-88.08-347.86,11.46-296.75,194.19,14.51,51.89,46.2,97.7,101.71,109.29,74.34,15.51,160.52-31.76,153.86-115.41-9.23-115.91-198.26-127.48-171.35,6.39Z" fill="#2f3293"></path>
    <path id="SvgjsPath1013" d="M1102.8,433.14c-45.86-64.29-41.15-114.25-56.54-187.11-1.39-6.6-2.64-13.24-4.86-19.62l-41.4-2.31-41.4,2.31c-2.22,6.38-3.47,13.02-4.86,19.62-15.39,72.86-10.68,122.82-56.54,187.11-44.33,62.15-113.82,83.91-184.45,103.26l6.91,114.37c74.58,53.34,162.99,98.43,201.61,186.57,20.74,47.33,37.43,127.36,41.27,179.06,2.19,29.53-.76,60.16-1.06,89.57-.5,47.45,10.26,95.84,14.34,143.14,2.31,7.97,1.61,5.55,24.18,5.55s21.86,2.42,24.18-5.55c4.08-47.29,14.83-95.68,14.34-143.14-.31-29.41-3.26-60.04-1.06-89.57,3.84-51.7,20.53-131.73,41.27-179.06,38.63-88.15,127.04-133.24,201.61-186.57l6.91-114.37c-70.63-19.35-140.12-41.11-184.45-103.26Z" fill="#2f3293"></path>
</svg><style>@media (prefers-color-scheme: light) { :root { filter: none; } }
@media (prefers-color-scheme: dark) { :root { filter: none; } }
</style></svg>